<svg xmlns="http://www.w3.org/2000/svg" width="21" height="18" viewBox="0 0 21 18" fill="none" class="injected-svg" data-src="/icons/new/menu-study.svg" xmlns:xlink="http://www.w3.org/1999/xlink">
<path d="M20.1251 3.49991C19.6417 3.49991 19.2499 3.89174 19.2499 4.37508V12.8496H11.8876C13.4838 11.7474 15.4156 11.0998 17.4998 11.0998V1C17.4998 0.447716 17.051 -0.00531779 16.5014 0.0497994C14.1671 0.283932 12.0709 1.33016 10.5 2.90196C8.92914 1.33016 6.83274 0.283929 4.49837 0.0497985C3.94884 -0.00531729 3.49997 0.447715 3.49997 1V11.0998C5.585 11.0998 7.51616 11.7474 9.11244 12.8496H1.75009V4.37508C1.75009 3.89174 1.35826 3.49991 0.874915 3.49991C0.394006 3.49991 0 3.89469 0 4.37483V14.8748C0 15.3568 0.394006 15.75 0.874915 15.75H8.74992C8.74992 16.7173 9.53347 17.4998 10.5 17.4998C11.4665 17.4998 12.2501 16.7173 12.2501 15.75H20.1251C20.606 15.75 21 15.3568 21 14.8748V4.37483C21 3.89469 20.606 3.49991 20.1251 3.49991Z" fill="#f3a952"></path>
</svg>