<svg xmlns="http://www.w3.org/2000/svg" width="15" height="16" viewBox="0 0 15 16" fill="none">
<path d="M13.5 0.102356H4.5C3.675 0.102356 3 0.777356 3 1.60236V10.6024C3 11.4274 3.675 12.1024 4.5 12.1024H13.5C14.325 12.1024 15 11.4274 15 10.6024V1.60236C15 0.777356 14.325 0.102356 13.5 0.102356ZM12 3.85236H9.75V7.97736C9.75 9.01236 8.91 9.85236 7.875 9.85236C6.84 9.85236 6 9.01236 6 7.97736C6 6.94236 6.84 6.10236 7.875 6.10236C8.3025 6.10236 8.685 6.24486 9 6.48486V2.35236H12V3.85236ZM1.5 3.10236H0V13.6024C0 14.4274 0.675 15.1024 1.5 15.1024H12V13.6024H1.5V3.10236Z" fill="white"/>
</svg>