<svg xmlns="http://www.w3.org/2000/svg" width="18" height="18" viewBox="0 0 45 45" fill="none">
<path d="M22.4998 -8.97376e-05C10.0737 -8.97376e-05 0 10.0735 0 22.4999C0 34.9266 10.0737 44.9999 22.4998 44.9999C34.9273 44.9999 45 34.927 45 22.4999C45 10.0742 34.9273 0.000922788 22.4995 0.000922788L22.4998 -0.000427246V-8.97376e-05ZM32.8182 32.4517C32.4153 33.1125 31.5503 33.3225 30.8891 32.9164C25.6065 29.6895 18.9561 28.9588 11.124 30.7483C10.3694 30.9201 9.61709 30.4472 9.44496 29.6922C9.27216 28.9372 9.74331 28.1849 10.5 28.0131C19.0708 26.0549 26.4226 26.898 32.3535 30.5225C33.0147 30.9282 33.2243 31.7905 32.8182 32.4517ZM35.5723 26.3252C35.0643 27.1504 33.9843 27.411 33.1595 26.9034C27.1114 23.1857 17.8926 22.1091 10.7389 24.2809C9.81115 24.5611 8.83139 24.0383 8.54991 23.1122C8.27046 22.1843 8.79358 21.2066 9.71969 20.9244C17.8909 18.4451 28.0494 19.6459 34.9948 23.9141C35.8196 24.422 36.0802 25.5021 35.5726 26.3259V26.3256L35.5723 26.3252ZM35.8088 19.9456C28.557 15.6384 16.5929 15.2425 9.6694 17.3438C8.55767 17.681 7.38182 17.0535 7.04499 15.9414C6.70817 14.829 7.33524 13.6542 8.44765 13.3163C16.3955 10.9035 29.6076 11.3696 37.9567 16.3262C38.9587 16.9199 39.2868 18.2112 38.6928 19.2099C38.1015 20.2099 36.8065 20.5397 35.8099 19.9456H35.8088Z" fill="#1ED760"/>
</svg>